<?xml version="1.0" encoding="UTF-8" standalone="no"?>
<!-- Generator: Adobe Illustrator 19.2.0, SVG Export Plug-In . SVG Version: 6.00 Build 0)  -->

<svg
   xmlns:dc="http://purl.org/dc/elements/1.1/"
   xmlns:cc="http://creativecommons.org/ns#"
   xmlns:rdf="http://www.w3.org/1999/02/22-rdf-syntax-ns#"
   xmlns:svg="http://www.w3.org/2000/svg"
   xmlns="http://www.w3.org/2000/svg"
   xmlns:sodipodi="http://sodipodi.sourceforge.net/DTD/sodipodi-0.dtd"
   xmlns:inkscape="http://www.inkscape.org/namespaces/inkscape"
   version="1.1"
   x="0px"
   y="0px"
   width="370"
   height="370"
   viewBox="0 0 370 370"
   enable-background="new 0 0 370 344"
   xml:space="preserve"
   id="svg47"
   sodipodi:docname="Dynatrace_Logo.svg"
   inkscape:version="0.92.5 (2060ec1f9f, 2020-04-08)"><metadata
   id="metadata53"><rdf:RDF><cc:Work
       rdf:about=""><dc:format>image/svg+xml</dc:format><dc:type
         rdf:resource="http://purl.org/dc/dcmitype/StillImage" /><dc:title></dc:title></cc:Work></rdf:RDF></metadata><defs
   id="defs51" /><sodipodi:namedview
   pagecolor="#ffffff"
   bordercolor="#666666"
   borderopacity="1"
   objecttolerance="10"
   gridtolerance="10"
   guidetolerance="10"
   inkscape:pageopacity="0"
   inkscape:pageshadow="2"
   inkscape:window-width="1848"
   inkscape:window-height="1016"
   id="namedview49"
   showgrid="false"
   inkscape:zoom="0.68604651"
   inkscape:cx="22.474576"
   inkscape:cy="172"
   inkscape:window-x="72"
   inkscape:window-y="27"
   inkscape:window-maximized="1"
   inkscape:current-layer="svg47" />
<g
   id="Background"
   transform="translate(0,26)">
</g>
<g
   id="Vertical"
   transform="translate(0,26)">
</g>
<g
   id="Horizontal"
   transform="translate(0,26)">
</g>
<g
   id="Dynatrace_Color"
   transform="translate(0,26)">
</g>
<g
   id="Variants"
   transform="translate(0,14)">
	<g
   id="g44">
		<g
   id="g28">
			<g
   id="g8">
				<path
   d="m 241.9,282.2 h -10.6 c -3,0 -5.1,0.6 -6.3,1.8 -1.3,1.2 -1.9,3.3 -1.9,6.2 v 36.6 h -6.4 v -37.1 c 0,-2.8 0.5,-5.9 2,-8.2 2.7,-4.3 7.9,-5.1 11.7,-5.1 h 11.5 z"
   id="path6"
   inkscape:connector-curvature="0"
   style="fill:#1a1a1a" />
			</g>
			<g
   id="g12">
				<path
   d="m 201.1,321.2 c -3,0 -5.1,-0.6 -6.3,-1.8 -1.3,-1.2 -1.9,-3.2 -1.9,-6.1 v -31 h 13.3 v -5.7 h -13.3 v -15.1 h -6.4 v 52.2 c 0,2.8 0.5,5.9 2,8.2 2.7,4.3 7.9,5.1 11.7,5.1 h 11.5 v -5.7 h -10.6 z"
   id="path10"
   inkscape:connector-curvature="0"
   style="fill:#1a1a1a" />
			</g>
			<path
   d="m 35.1,261.4 v 15.1 H 21.8 c -8.1,0 -13,2.4 -16,5.3 -4.7,4.5 -4.7,11 -4.7,11.7 0,0.8 0,15.4 0,16.2 0,0.7 0,7.2 4.7,11.7 3,2.9 7.9,5.3 16,5.3 h 5.9 c 3.8,0 9,-0.8 11.7,-5.1 1.5,-2.3 2,-5.4 2,-8.2 v -52.2 h -6.3 z m -1.9,57.9 c -1.3,1.2 -3.3,1.8 -6.3,1.8 h -5.7 c -5.2,0 -8.5,-1.5 -10.5,-3.5 -2.4,-2.3 -3.2,-5.3 -3.2,-7.7 v -16.6 c 0,-2.4 0.8,-5.4 3.2,-7.7 2,-2 5.3,-3.5 10.5,-3.5 h 13.9 v 31 c 0,3 -0.7,5 -1.9,6.2 z"
   id="path14"
   inkscape:connector-curvature="0"
   style="fill:#1a1a1a" />
			<path
   d="m 299.3,285.7 c 2,-2 5.3,-3.5 10.5,-3.5 h 15.3 v -5.7 h -14.6 c -8.1,0 -13,2.4 -16,5.3 -4.7,4.5 -4.7,11 -4.7,11.7 0,0.4 0,15.8 0,16.2 0,0.7 0,7.2 4.7,11.7 3,2.9 7.9,5.3 16,5.3 h 14.6 V 321 h -15.3 c -5.2,0 -8.5,-1.5 -10.5,-3.5 -2.4,-2.3 -3.2,-5.3 -3.2,-7.7 v -16.6 c 0.1,-2.2 0.9,-5.2 3.2,-7.5 z"
   id="path16"
   inkscape:connector-curvature="0"
   style="fill:#1a1a1a" />
			<path
   d="m 180,293.6 c 0,-0.7 0,-7.2 -4.7,-11.7 -3,-2.9 -7.9,-5.3 -16,-5.3 h -14.1 v 5.7 H 160 c 5.2,0 8.5,1.5 10.5,3.5 2.4,2.3 3.2,5.3 3.2,7.7 v 4.8 h -20.2 c -3.8,0 -9,0.8 -11.7,5.1 -1.5,2.3 -2,5.4 -2,8.2 v 2 c 0,2.8 0.5,5.9 2,8.2 2.7,4.3 7.9,5.1 11.7,5.1 h 12.8 c 3.8,0 9,-0.8 11.7,-5.1 1.5,-2.3 2,-5.4 2,-8.2 0,0 0,-16.7 0,-20 z m -8.3,25.7 c -1.3,1.2 -3.3,1.8 -6.3,1.8 h -11.1 c -3,0 -5.1,-0.6 -6.3,-1.8 -1.3,-1.2 -1.9,-3.2 -1.9,-6.1 v -1.4 c 0,-2.9 0.6,-4.9 1.9,-6.1 1.3,-1.2 3.3,-1.8 6.3,-1.8 h 19.4 v 9.3 c -0.1,2.9 -0.7,4.9 -2,6.1 z"
   id="path18"
   inkscape:connector-curvature="0"
   style="fill:#1a1a1a" />
			<path
   d="m 284.8,293.6 c 0,-0.7 0,-7.2 -4.7,-11.7 -3,-2.9 -7.9,-5.3 -16,-5.3 H 250 v 5.7 h 14.7 c 5.2,0 8.5,1.5 10.5,3.5 2.4,2.3 3.2,5.3 3.2,7.7 v 4.8 h -20.2 c -3.8,0 -9,0.8 -11.7,5.1 -1.5,2.3 -2,5.4 -2,8.2 v 2 c 0,2.8 0.5,5.9 2,8.2 2.7,4.3 7.9,5.1 11.7,5.1 H 271 c 3.8,0 9,-0.8 11.7,-5.1 1.5,-2.3 2,-5.4 2,-8.2 0.1,0 0.1,-16.7 0.1,-20 z m -8.3,25.7 c -1.3,1.2 -3.3,1.8 -6.3,1.8 H 259 c -3,0 -5.1,-0.6 -6.3,-1.8 -1.3,-1.2 -1.9,-3.2 -1.9,-6.1 v -1.4 c 0,-2.9 0.6,-4.9 1.9,-6.1 1.3,-1.2 3.3,-1.8 6.3,-1.8 h 19.4 v 9.3 c 0,2.9 -0.6,4.9 -1.9,6.1 z"
   id="path20"
   inkscape:connector-curvature="0"
   style="fill:#1a1a1a" />
			<polygon
   points="91.8,276.5 85.2,276.5 69.1,318.3 53.1,276.5 46.5,276.5 65.8,326.9 60,342 66.6,342 "
   id="polygon22"
   style="fill:#1a1a1a" />
			<path
   d="m 134.6,293.6 c 0,-0.7 0,-7.2 -4.6,-11.7 -2.9,-2.9 -7.6,-5.2 -15.2,-5.3 h -0.7 c -7.6,0.1 -12.3,2.5 -15.2,5.3 -4.6,4.5 -4.6,11 -4.6,11.7 0,0.8 0,30.7 0,33.3 h 6.3 v -33.5 c 0,-2.4 0.8,-5.4 3.1,-7.7 2,-1.9 5.7,-3.4 10.7,-3.4 5,0.1 8.8,1.5 10.7,3.4 2.3,2.3 3.1,5.3 3.1,7.7 v 33.5 h 6.3 c 0.1,-2.6 0.1,-32.5 0.1,-33.3 z"
   id="path24"
   inkscape:connector-curvature="0"
   style="fill:#1a1a1a" />
			<path
   d="m 364.3,281.9 c -2.9,-2.9 -7.6,-5.2 -15.2,-5.3 h -0.7 c -7.6,0.1 -12.3,2.5 -15.2,5.3 -4.6,4.5 -4.6,11 -4.6,11.7 v 16.2 c 0,0.7 0,7.2 4.6,11.7 2.9,2.9 7.6,5.2 15.2,5.3 h 14.9 v -5.7 h -14.6 c -5,-0.1 -8.8,-1.5 -10.7,-3.4 -2.3,-2.3 -3.1,-5.3 -3.1,-7.7 v -6 h 34 v -10.5 c 0,-0.6 0,-7.1 -4.6,-11.6 z m -29.4,16.4 v -5 c 0,-2.4 0.8,-5.4 3.1,-7.7 2,-1.9 5.7,-3.4 10.7,-3.4 5,0.1 8.8,1.5 10.7,3.4 2.3,2.3 3.1,5.3 3.1,7.7 v 5 z"
   id="path26"
   inkscape:connector-curvature="0"
   style="fill:#1a1a1a" />
		</g>
		<g
   id="g42">
			<path
   d="m 151,19.8 c -2.7,14.5 -6.2,35.9 -8,57.6 -3.2,38.4 -1.2,64 -1.2,64 l -53.9,51.3 c 0,0 -4.2,-28.8 -6.3,-61.2 -1.3,-20 -1.7,-37.7 -1.8,-48.4 0,-0.6 0.3,-1.2 0.3,-1.8 0,-0.7 0.9,-7.9 7.9,-14.5 7.7,-7.3 63.8,-51.3 63,-47 z"
   id="path30"
   inkscape:connector-curvature="0"
   style="fill:#1496ff" />
			<path
   d="m 151,19.8 c -2.7,14.5 -6.2,35.9 -8,57.6 0,0 -59.7,-7.1 -63.2,7.3 0,-0.7 1,-9.5 8,-16.2 7.7,-7.4 64,-53 63.2,-48.7 z"
   id="path32"
   inkscape:connector-curvature="0"
   style="fill:#1284ea" />
			<path
   d="m 79.8,81.3 c 0,1 0,2.1 0,3.3 0.6,-2.6 1.6,-4.5 3.8,-7.2 4.4,-5.6 11.6,-7.1 14.5,-7.5 14.6,-1.9 36.2,-4.3 57.9,-4.9 38.5,-1.2 63.9,2 63.9,2 l 53.9,-51.3 c 0,0 -28.3,-5.4 -60.6,-9.2 C 192.1,4 173.5,2.7 163.1,2.1 c -0.7,0 -8.2,-1 -15.2,5.7 -7.7,7.3 -46.3,43.9 -61.8,58.7 -6.8,6.6 -6.3,14.1 -6.3,14.8 z"
   id="path34"
   inkscape:connector-curvature="0"
   style="fill:#b4dc00" />
			<path
   d="m 271.9,146.8 c -14.6,2 -36.1,4.4 -57.9,5.1 -38.5,1.3 -64,-1.9 -64,-1.9 l -54,51.3 c 0,0 28.6,5.6 60.8,9.3 19.7,2.3 37.3,3.5 47.9,4.1 0.7,0 2,-0.6 2.7,-0.6 0.7,0 8.2,-1.3 15.2,-8 7.8,-7.3 53.6,-59.8 49.3,-59.3 z"
   id="path36"
   inkscape:connector-curvature="0"
   style="fill:#6f2da8" />
			<path
   d="m 271.9,146.8 c -14.6,2 -36.1,4.4 -57.9,5.1 0,0 4.2,60 -10.4,62.7 0.7,0 10.6,-0.5 17.6,-7.1 7.7,-7.3 55,-61.2 50.7,-60.7 z"
   id="path38"
   inkscape:connector-curvature="0"
   style="fill:#591f91" />
			<path
   d="m 206.9,214.9 c -1,-0.1 -2.1,-0.1 -3.3,-0.2 2.7,-0.5 4.5,-1.4 7.4,-3.4 5.8,-4.2 7.7,-11.2 8.2,-14.1 2.6,-14.5 6,-35.9 7.8,-57.6 3.1,-38.4 1.1,-63.9 1.1,-63.9 L 282,24.4 c 0,0 4,28.5 6.2,60.9 1.4,21.2 1.8,39.8 1.9,50.2 0,0.7 0.6,8.2 -6.4,14.9 -7.7,7.3 -46.2,44.1 -61.7,58.9 -6.9,6.5 -14.4,5.6 -15.1,5.6 z"
   id="path40"
   inkscape:connector-curvature="0"
   style="fill:#73be28" />
		</g>
	</g>
</g>
</svg>